<svg xmlns="http://www.w3.org/2000/svg" width="424" height="424" fill="none" xmlns:v="https://vecta.io/nano"><style><![CDATA[.B{fill:#fff}.C{stroke:#0c0c0c}.D{stroke-miterlimit:10}.E{fill:#0c0c0c}.F{fill:#ff3d00}.G{stroke-linecap:round}.H{stroke-linejoin:round}]]></style><g clip-path="url(#A)"><path d="M211.752 408c96.141 0 174.077-77.936 174.077-174.078S307.893 59.845 211.752 59.845 37.674 137.781 37.674 233.922 115.61 408 211.752 408z" fill="#f3f5ff"/><path d="M300.037 384.023l-80.076-.009-4.344-12.625-10.223.497-1.652 11.867h-71.046l-1.309-54.149.596-.018 151.817-5.103 16.237 59.54z" class="B C D"/><path d="M176.387 117.696s-49.1 6.818-68.219 25.936c-25.476 25.476-53.056 118.954-52.189 137.973.867 19.01 25.268 56.632 66.196 30.768l.425 24.69 167.864-7.559-.415-71.948s17.05 42.454 37.73 53.471c20.69 11.027 49.805-14.521 42.508-41.216s-39.41-102.057-55.313-119.803-76.717-31.084-76.717-31.084l-61.879-1.246v.018h.009z" class="F"/><path d="M199.931 27.686s12.399-7.098 9.184-10.774-15.569 4.38-18.622 12.995c0 0-7.622-4.75-10.015-.668-2.393 4.073 4.525 5.075 6.864 4.723 0 0-10.729 4.497-13.384 19.028s8.344 23.39 8.344 23.39l62.421-2.592s6.448-7.18 2.556-23.859c-1.427-6.114-18.748-18.567-18.748-18.567l-28.6-3.657v-.018z" class="E"/><path d="M194.873 97.729c-23.263-.045-34.444 15.424-35.952 23.344-4.009 21.159 67.307 16.003 67.307 16.003s37.731 5.138 31.21-17.357c-6.366-21.99-37.658-21.936-62.574-21.99h.009z" class="F"/><g class="E"><path d="M210.117 173.154c.75 0 1.355-.605 1.355-1.355v-34.181c0-.75-.605-1.355-1.355-1.355a1.35 1.35 0 0 0-1.354 1.355v34.181c0 .75.605 1.355 1.354 1.355zm10.557 0c.75 0 1.355-.605 1.355-1.355v-34.181c0-.75-.605-1.355-1.355-1.355s-1.355.605-1.355 1.355v34.181c0 .75.605 1.355 1.355 1.355zm-70.242 86.145c5.464 8.046 13.429 12.173 17.791 9.211s3.468-11.884-1.996-19.931-13.275-11.496-17.637-8.534-3.621 11.207 1.842 19.254zm147.609-46.193c5.111-6.619 6.8-13.88 3.775-16.21s-9.618 1.147-14.72 7.767c-5.112 6.619-6.801 13.88-3.775 16.21s9.618-1.147 14.72-7.767z"/></g><path d="M255.163 65.48c-3.667-3.667-6.999-1.815-8.507-.578-1.418-19.019-16.247-33.992-34.353-33.992s-32.954 14.982-34.363 34.01l-.587-1.472s-4.371-5.229-9.365-.235c-4.425 4.425 0 11.189 4.263 12.219 2.095.506 4.371-.433 6.051-1.436 1.878 12.047 9.175 22.117 19.127 27.227v18.757l17.185 9.88 4.507-3.757v-21.999c13.076-2.808 23.471-13.546 26.65-27.345 1.535.777 3.395 1.355 5.138.93 4.263-1.029 8.688-7.803 4.263-12.219h-.009v.009z" class="B C D"/><g class="E"><path d="M196.047 38.532s-2.041 12.634-16.915 19.218l1.039-12.589 16.535-14.756s4.308-6.331 17.511-5.491c13.194.84 25.918 9.771 34.778 15.596 5.68 3.73 12.887 9.112 4.885 12.327-6.249 2.511-17.176-1.382-21.619-5.825 0 0 8.606 5.599-4.218 7.134-12.67 1.508-21.629-3.712-32.005-15.614h.009zm38.444 142.343c-2.059 1.12-2.212 1.816-1.454 3.215s2.141 2.972 4.2 1.861c2.059-1.12 2.528-3.829 1.761-5.229-.759-1.4-2.457-.957-4.516.153h.009z"/></g><g class="B"><path d="M273.748 169.596s-8.597 1.074-12.047 14.566c-3.459 13.501 12.083 9.501 12.083 9.501l6.529-18.92-6.565-5.147z"/><path d="M284.712 173.154s-9.871-.081-13.149 13.022c-1.806 7.216 1.86 9.022 5.527 9.004 3.612-.009 6.601-1.111 8.669-3.811 1.418-1.851 1.174-6.295-2.212-5.969l5.68-7.099-4.515-5.147z"/></g><g class="E"><path d="M282.355 189.78c.072 0 .135-.019.198-.064.172-.108.217-.343.109-.514-.488-.741-.208-1.77.108-2.502.849-1.96 2.646-3.63 3.116-3.802a.37.37 0 0 0 .388-.09.37.37 0 0 0 0-.524c-.406-.397-1.084.153-1.337.361-1.643 1.337-4.271 4.859-2.889 6.963.072.108.189.172.307.172zm-28.457-37.424h-79.733a3.55 3.55 0 0 0-3.549 3.549v98.743a3.55 3.55 0 0 0 3.549 3.549h79.733a3.55 3.55 0 0 0 3.549-3.549v-98.743a3.55 3.55 0 0 0-3.549-3.549z"/><path d="M257.438 194.006l.885.027 1.048-.036c2.113-.145 3.766-.668 3.829-.695.199-.064.298-.271.244-.461-.063-.199-.271-.298-.461-.244-.045.009-2.745.858-5.535.659v.741l-.01.009z"/></g><path d="M257.438 171.194v.1c.578-.569 1.147-1.048 1.689-1.454l-.496.352c-.425.316-.813.659-1.193 1.002z" class="B"/><g class="F"><path d="M250.738 183.178c-.289 1.698-.362 3.206-.208 4.516-.063-1.229.108-2.701.569-4.453l.316-1.101-.569.478-.108.56zm1.706 8.85l.28.262c1.156 1.003 2.764 1.59 4.723 1.716v-.37c-1.797-.063-3.657-.47-4.994-1.608h-.009z"/><path d="M252.444 192.028c-1.065-1.056-1.697-2.501-1.914-4.325.099 2.041.84 3.422 1.914 4.325z"/><path d="M251.469 183.305l.289-1.463-.343.298-.316 1.102c-.47 1.752-.632 3.224-.569 4.452.208 1.824.849 3.269 1.915 4.326 1.345 1.137 3.206 1.544 4.994 1.607v-.37c-1.517-.109-3.071-.515-4.236-1.536-1.842-1.598-2.429-4.434-1.743-8.425l.009.009zm1.337-5.003c1.39-3.188 3.043-5.437 4.632-7.008v-.1c-2.221 2.05-3.684 4.597-4.632 7.108z"/><path d="M257.438 171.195v-.994c-4.091 3.468-5.852 8.507-6.601 12.418.19-.163.379-.308.569-.479.424-1.418.894-2.691 1.391-3.838.948-2.511 2.411-5.057 4.632-7.107h.009z"/></g><path d="M301.148 195.686c-.894-1.382-6.602-10.982-9.988-17.24-4.525-8.362-12.544-8.101-19.742-9.78-2.258-.524-17.691-1.364-19.308-1.093l.696 26.054v3.838c6.321 4.136 15.903 6.963 20.084 5.87 3.152 3.856 12.029 13.7 13.601 15.876.018 0 9.518-2.998 14.033-10.376 2.647-4.326 3.206-9.284.615-13.149h.009z" class="B C D"/><g class="F"><path d="M257.438 171.303c-1.589 1.571-3.242 3.82-4.632 7.008l-.344.966c.037-.072.064-.108.064-.108l4.912-7.866z"/><path d="M251.469 183.305c-.686 3.982-.099 6.818 1.743 8.425 1.165 1.021-.677-12.562-.677-12.562s-.018.037-.063.109c-.289.885-.524 1.752-.714 2.574l-.289 1.463v-.009z"/><path d="M251.758 181.851c.253-1.129.596-2.33 1.057-3.54-.506 1.155-.976 2.429-1.391 3.838l.343-.298h-.009z"/></g><path d="M183.575 215.012s.876-24.474-12.11-13.971l-.849.714v52.369l23.715-15.813-10.756-23.299z" fill="#001780"/><g class="C"><g class="G H"><path d="M158.759 121.064s15.289 16.689 46.843 21.178c9.437 1.345 19.073.776 28.203-1.987 8.543-2.592 18.368-7.405 24.627-16.373m-75.768-12.137l38.904 22.441m13.185-21.312l-20.139 16.996M94.469 384.014h246.712"/><path d="M99.047 152.6s5.735 7.739 19.417 49.742m-34.742 51.032s42.246-22.577 54.754-5.707l9.636-7.243s-6.367 20.744 18.784 28.745l-11.108 7.839s-5.382 15.723-20.157 26.758c-15.479 11.56-24.365 14.206-24.365 14.206"/><path d="M90.017 239.458l8.335 7.432m40.124.777s-5.311 15.975 17.312 29.341m134.089-19.299s-6.493-11.686-.641-28.212l-5.708-8.543s18.504-2.818 19.398-22.722l7.613 10.277s25.964-1.426 48.46 45.669m-69.763-24.69s13.7-.695 21.294-20.978"/></g><path d="M302.917 198.233l-1.77-2.547" class="D"/><g class="G H"><path d="M266.921 194.304s2.321 9.302 13.817 6.945m4.714-28.538s-17.294 4.38-13.158 18.902c.452 1.598 1.761 2.818 3.396 3.125 1.806.343 4.425.343 7.568-1.102 6.05-2.8 3.359-9.239.28-8.227"/><use href="#B"/><path d="M263.706 168.16s-10.431 2.249-12.553 18.577c0 0-1.373 8.696 12.309 6.393m19.199-3.919s-1.327-4.462 3.613-6.394"/></g></g><path d="M257.438 183.494v-13.293-12.39c0-1.039-.84-1.879-1.878-1.879h-83.065a1.88 1.88 0 0 0-1.879 1.879v43.943a34.39 34.39 0 0 1 .849-.713c12.986-10.503 12.11 13.971 12.11 13.971l10.756 23.299-23.715 15.813v2.185a1.88 1.88 0 0 0 1.879 1.879h83.065c1.038 0 1.878-.84 1.878-1.879v-72.824.009z" fill="#001780"/><path d="M189.301 161.423h-12.245a2.26 2.26 0 0 0-2.258 2.258v10.692a2.26 2.26 0 0 0 2.258 2.258h12.245a2.26 2.26 0 0 0 2.258-2.258v-10.692a2.26 2.26 0 0 0-2.258-2.258z" class="E"/><use href="#C" class="B"/><use href="#C" class="C D"/><g class="B"><path d="M181.905 166.056c0 1.328-1.156 2.402-2.574 2.402s-2.574-1.074-2.574-2.402 1.156-2.402 2.574-2.402 2.574 1.074 2.574 2.402zm7.929 3.549c0 1.327-1.156 2.402-2.574 2.402s-2.573-1.075-2.573-2.402 1.155-2.402 2.573-2.402 2.574 1.074 2.574 2.402zm-7.929 2.962c0 1.328-1.156 2.402-2.574 2.402s-2.574-1.074-2.574-2.402 1.156-2.402 2.574-2.402 2.574 1.075 2.574 2.402z"/></g><g class="C G H"><path d="M203.877 212.239s-13.546 8.11-20.735 8.074m29.748-1.31s-18.685 11.045-24.058 11.731m24.952-2.844s-14.694 9.915-22.668 10.394m120.868-92.168l-14.467 29.964M245.111 73.21c.551-.542 1.933-3.703 7.848-5.337"/><path d="M247.162 70.925l2.971 2.818m-79.932-8.128s5.599 1.264 7.848 5.337"/><path d="M173.019 71.485l2.971-2.818"/></g></g><defs><clipPath id="A"><path transform="translate(16 16)" d="M0 0h392v392H0z" class="B"/></clipPath><path id="B" d="M273.748 169.117s-10.431 2.249-12.553 18.577c0 0-1.373 8.696 12.309 6.393"/><path id="C" d="M170.617 201.764c-12.246 10.484-14.703 25.403-17.285 31.409-2.276 5.292-5.22 7.252-5.22 7.252-1.346 16.074 9.491 22.387 9.491 22.387l10.331-6.891 16.951-6.764c4.732-1.011 11.271-2.998 17.764-6.935 6.52-3.956 10.259-6.502 12.327-8.029 1.382-1.011 1.842-2.971 1.074-4.569-.469-.976-1.327-1.59-2.266-1.734 3.287-1.915 5.445-3.17 6.746-4.118 1.165-.858 1.372-2.908.722-4.236-.867-1.77-2.835-2.592-4.615-1.923l-3.747 1.39c5.183-3.224 8.308-5.147 10.006-6.448 1.165-.894 1.336-2.944.596-4.28-.984-1.779-2.971-2.547-4.741-1.833l-14.874 5.797c6.123-3.774 9.509-5.87 11.243-7.206.985-.75 1.192-2.574.551-3.712-1.065-1.896-3.152-2.718-5.03-1.969-6.529 2.61-21.313 8.408-27.589 9.835-.307.072-.605.163-.894.262-.018 0-.036 0-.045.009-4.534 1.382-8.58 2.176-11.496 2.628"/></defs></svg>