<svg width="208" height="208" viewBox="0 0 208 208" fill="none" xmlns="http://www.w3.org/2000/svg">
<path d="M103.852 207.704C161.208 207.704 207.704 161.208 207.704 103.852C207.704 46.4965 161.208 0.000488281 103.852 0.000488281C46.496 0.000488281 0 46.4965 0 103.852C0 161.208 46.496 207.704 103.852 207.704Z" fill="#E6FFFA"/>
<g clip-path="url(#clip0_10_749)">
<path d="M178.852 28.647C178.852 22.9417 174.228 18.3181 168.523 18.3181H39.4214C33.7161 18.3181 29.0925 22.9417 29.0925 28.647V175.946C69.8144 218.81 138.13 218.81 178.852 175.946V28.647Z" fill="white"/>
<path d="M178.696 175.868C180.498 173.981 182.216 172.029 183.85 170.015V28.5482C183.85 20.0009 176.914 13.0654 168.367 13.0654H39.2655C30.7181 13.0654 23.7827 20.0009 23.7827 28.5482V169.993C25.437 172.008 27.1549 173.959 28.9365 175.847V28.5482C28.9365 22.8429 33.5602 18.2193 39.2655 18.2193H168.367C174.072 18.2193 178.696 22.8429 178.696 28.5482V175.847V175.868Z" fill="#002EFF"/>
<path d="M28.9359 175.868V28.5476C28.9359 22.8423 33.5596 18.2187 39.2649 18.2187H168.366C174.071 18.2187 178.695 22.8423 178.695 28.5476V175.847" stroke="#0C0C0C" stroke-linecap="round" stroke-linejoin="round"/>
<path d="M183.85 169.993V28.5482C183.85 20.0009 176.914 13.0654 168.367 13.0654H39.2655C30.7181 13.0654 23.7827 20.0009 23.7827 28.5482V169.993" stroke="#0C0C0C" stroke-linecap="round" stroke-linejoin="round"/>
<path d="M66.3504 69.8649C66.3504 72.0495 68.7046 73.4069 70.6135 72.3252C71.483 71.8162 72.0345 70.883 72.0345 69.8649C72.0345 67.6804 69.6802 66.323 67.7714 67.4046C66.9018 67.9137 66.3504 68.8469 66.3504 69.8649Z" fill="white"/>
<path d="M108.918 69.865C108.918 72.0496 111.272 73.4069 113.181 72.3253C114.051 71.8162 114.602 70.883 114.602 69.865C114.602 67.6804 112.248 66.323 110.339 67.4047C109.47 67.9137 108.918 68.8469 108.918 69.865Z" fill="white"/>
<path d="M131.97 104.707H78.4606C74.1562 104.707 70.672 101.223 70.672 96.9188C70.672 92.6143 74.1562 89.1301 78.4606 89.1301H131.974C136.278 89.1301 139.763 92.6143 139.763 96.9188C139.759 101.223 136.27 104.707 131.966 104.707H131.97Z" fill="white" stroke="#0C0C0C" stroke-linecap="round" stroke-linejoin="round"/>
<path d="M131.97 124.646H78.4606C74.1562 124.646 70.672 121.162 70.672 116.857C70.672 112.553 74.1562 109.069 78.4606 109.069H131.974C136.278 109.069 139.763 112.553 139.763 116.857C139.759 121.162 136.27 124.646 131.966 124.646H131.97Z" fill="#002EFF"/>
<path d="M155.275 211.904L137.992 181.132L137.431 157.412C137.342 153.705 135.291 150.326 132.047 148.535L129.947 147.378L128.64 145.88C127.633 144.722 126.26 143.939 124.749 143.662L122.423 143.232L120.9 141.734C119.284 140.142 117.2 139.11 114.955 138.785L114.143 138.668C114.143 138.668 112.644 124.735 111.791 116.735C111.548 114.449 108.819 113.413 107.093 114.969L106.992 115.058C104.726 117.105 103.434 120.02 103.442 123.07L103.56 167.357C103.568 170.541 99.2963 171.589 97.8304 168.758L90.7158 154.972C90.1514 153.879 88.9534 153.258 87.7352 153.437L85.717 153.993C83.7069 154.541 82.4683 156.568 82.8906 158.61L86.5129 175.946H86.521C87.7717 186.687 93.1279 196.53 101.477 203.409L111.791 211.912" fill="white"/>
<path d="M155.275 211.904L137.992 181.132L137.431 157.412C137.342 153.705 135.291 150.326 132.047 148.535L129.947 147.378L128.64 145.88C127.633 144.722 126.26 143.939 124.749 143.662L122.423 143.232L120.9 141.734C119.284 140.142 117.2 139.11 114.955 138.785L114.143 138.668C114.143 138.668 112.644 124.735 111.791 116.735C111.548 114.449 108.819 113.413 107.093 114.969L106.992 115.058C104.726 117.105 103.434 120.02 103.442 123.07L103.56 167.357C103.568 170.541 99.2963 171.589 97.8304 168.758L90.7158 154.972C90.1514 153.879 88.9534 153.258 87.7352 153.437L85.717 153.993C83.7069 154.541 82.4683 156.568 82.8906 158.61L86.5129 175.946H86.521C87.7717 186.687 93.1279 196.53 101.477 203.409L111.791 211.912" stroke="#0C0C0C" stroke-linecap="round" stroke-linejoin="round"/>
<path d="M114.146 138.659L115.218 158.062" stroke="#0C0C0C" stroke-linecap="round" stroke-linejoin="round"/>
<path d="M122.354 143.35L123.369 159.666" stroke="#0C0C0C" stroke-linecap="round" stroke-linejoin="round"/>
<path d="M129.944 147.699L130.455 162.078" stroke="#0C0C0C" stroke-linecap="round" stroke-linejoin="round"/>
<path d="M75.1791 98.9323L83.0652 94.4045" stroke="#0C0C0C" stroke-linecap="round" stroke-linejoin="round"/>
<path d="M75.1952 94.4046L83.0691 98.9527" stroke="#0C0C0C" stroke-linecap="round" stroke-linejoin="round"/>
<path d="M79.1307 92.1306V101.227" stroke="#0C0C0C" stroke-linecap="round" stroke-linejoin="round"/>
<path d="M86.3619 98.9196L94.248 94.3918" stroke="#0C0C0C" stroke-linecap="round" stroke-linejoin="round"/>
<path d="M86.3744 94.3919L94.2524 98.94" stroke="#0C0C0C" stroke-linecap="round" stroke-linejoin="round"/>
<path d="M90.313 92.118V101.214" stroke="#0C0C0C" stroke-linecap="round" stroke-linejoin="round"/>
<path d="M97.6175 98.9324L105.504 94.4046" stroke="#0C0C0C" stroke-linecap="round" stroke-linejoin="round"/>
<path d="M97.6336 94.4046L105.512 98.9527" stroke="#0C0C0C" stroke-linecap="round" stroke-linejoin="round"/>
<path d="M101.569 92.1306V101.227" stroke="#0C0C0C" stroke-linecap="round" stroke-linejoin="round"/>
<path d="M132.298 82.5773H78.7886C74.4842 82.5773 71 79.0931 71 74.7886C71 70.4842 74.4842 67 78.7886 67H132.302C136.606 67 140.091 70.4842 140.091 74.7886C140.087 79.0931 136.598 82.5773 132.294 82.5773H132.298Z" fill="white" stroke="#0C0C0C" stroke-linecap="round" stroke-linejoin="round"/>
<path d="M44.6198 38.0582C46.0529 38.0582 47.2166 36.8945 47.2166 35.4614C47.2166 34.0283 46.0529 32.8646 44.6198 32.8646C43.1867 32.8646 42.023 34.0283 42.023 35.4614C42.023 36.8945 43.1867 38.0582 44.6198 38.0582Z" fill="#FF3D00" stroke="#0C0C0C" stroke-linecap="round" stroke-linejoin="round"/>
<path d="M52.4758 38.0582C53.9089 38.0582 55.0727 36.8945 55.0727 35.4614C55.0727 34.0283 53.9089 32.8646 52.4758 32.8646C51.0427 32.8646 49.879 34.0283 49.879 35.4614C49.879 36.8945 51.0427 38.0582 52.4758 38.0582Z" fill="white" stroke="#0C0C0C" stroke-linecap="round" stroke-linejoin="round"/>
<path d="M60.3469 38.0583C61.78 38.0583 62.9437 36.8946 62.9437 35.4615C62.9437 34.0284 61.78 32.8646 60.3469 32.8646C58.9138 32.8646 57.7501 34.0284 57.7501 35.4615C57.7501 36.8946 58.9138 38.0583 60.3469 38.0583Z" fill="white" stroke="#0C0C0C" stroke-linecap="round" stroke-linejoin="round"/>
<path d="M78.767 77V71.5455H79.5767V72.3977H79.6477C79.7614 72.1065 79.9448 71.8804 80.1982 71.7195C80.4515 71.5561 80.7557 71.4744 81.1108 71.4744C81.4706 71.4744 81.7701 71.5561 82.0092 71.7195C82.2507 71.8804 82.4389 72.1065 82.5739 72.3977H82.6307C82.7704 72.116 82.9799 71.8923 83.2592 71.7266C83.5386 71.5585 83.8736 71.4744 84.2642 71.4744C84.7519 71.4744 85.1508 71.6271 85.4609 71.9325C85.7711 72.2356 85.9261 72.7079 85.9261 73.3494V77H85.0881V73.3494C85.0881 72.947 84.978 72.6593 84.7578 72.4865C84.5376 72.3137 84.2784 72.2273 83.9801 72.2273C83.5966 72.2273 83.2995 72.3433 83.0888 72.5753C82.8781 72.8049 82.7727 73.0961 82.7727 73.4489V77H81.9205V73.2642C81.9205 72.9541 81.8198 72.7043 81.6186 72.5149C81.4174 72.3232 81.1581 72.2273 80.8409 72.2273C80.6231 72.2273 80.4195 72.2853 80.2301 72.4013C80.0431 72.5173 79.8916 72.6783 79.7756 72.8842C79.6619 73.0878 79.6051 73.3234 79.6051 73.5909V77H78.767ZM89.0636 77.1278C88.7179 77.1278 88.4042 77.0627 88.1225 76.9325C87.8408 76.8 87.6171 76.6094 87.4513 76.3608C87.2856 76.1098 87.2028 75.8068 87.2028 75.4517C87.2028 75.1392 87.2643 74.8859 87.3874 74.6918C87.5105 74.4953 87.6751 74.3414 87.881 74.2301C88.087 74.1188 88.3143 74.036 88.5629 73.9815C88.8138 73.9247 89.0659 73.8797 89.3192 73.8466C89.6507 73.804 89.9194 73.772 90.1254 73.7507C90.3337 73.727 90.4852 73.688 90.5799 73.6335C90.677 73.5791 90.7255 73.4844 90.7255 73.3494V73.321C90.7255 72.9706 90.6296 72.6984 90.4379 72.5043C90.2485 72.3101 89.9608 72.2131 89.5749 72.2131C89.1748 72.2131 88.8612 72.3007 88.6339 72.4759C88.4066 72.651 88.2468 72.8381 88.1545 73.0369L87.359 72.7528C87.5011 72.4214 87.6905 72.1634 87.9272 71.9787C88.1663 71.7917 88.4267 71.6615 88.7085 71.5881C88.9925 71.5123 89.2719 71.4744 89.5465 71.4744C89.7217 71.4744 89.9229 71.4957 90.1502 71.5384C90.3799 71.5786 90.6012 71.6626 90.8143 71.7905C91.0297 71.9183 91.2085 72.1113 91.3505 72.3693C91.4925 72.6274 91.5636 72.973 91.5636 73.4062V77H90.7255V76.2614H90.6829C90.6261 76.3797 90.5314 76.5064 90.3988 76.6413C90.2662 76.7763 90.0898 76.8911 89.8697 76.9858C89.6495 77.0805 89.3808 77.1278 89.0636 77.1278ZM89.1914 76.375C89.5228 76.375 89.8022 76.3099 90.0295 76.1797C90.2591 76.0495 90.4319 75.8814 90.5479 75.6754C90.6663 75.4695 90.7255 75.2528 90.7255 75.0256V74.2585C90.69 74.3011 90.6119 74.3402 90.4911 74.3757C90.3728 74.4089 90.2354 74.4384 90.0792 74.4645C89.9253 74.4882 89.775 74.5095 89.6282 74.5284C89.4838 74.545 89.3666 74.5592 89.2766 74.571C89.0588 74.5994 88.8552 74.6456 88.6658 74.7095C88.4788 74.7711 88.3273 74.8646 88.2113 74.9901C88.0977 75.1132 88.0408 75.2812 88.0408 75.4943C88.0408 75.7855 88.1486 76.0057 88.364 76.1548C88.5818 76.3016 88.8576 76.375 89.1914 76.375ZM93.0932 77V71.5455H93.9313V77H93.0932ZM93.5194 70.6364C93.356 70.6364 93.2151 70.5807 93.0968 70.4695C92.9808 70.3582 92.9228 70.2244 92.9228 70.0682C92.9228 69.9119 92.9808 69.7782 93.0968 69.6669C93.2151 69.5556 93.356 69.5 93.5194 69.5C93.6827 69.5 93.8224 69.5556 93.9384 69.6669C94.0568 69.7782 94.1159 69.9119 94.1159 70.0682C94.1159 70.2244 94.0568 70.3582 93.9384 70.4695C93.8224 70.5807 93.6827 70.6364 93.5194 70.6364ZM96.3043 69.7273V77H95.4663V69.7273H96.3043ZM102.03 78.9176C101.305 78.9176 100.665 78.8182 100.108 78.6193C99.5521 78.4228 99.0846 78.1328 98.7058 77.7493C98.327 77.3658 98.0405 76.8958 97.8464 76.3395C97.6523 75.7831 97.5552 75.1463 97.5552 74.429C97.5552 73.7353 97.6535 73.1151 97.85 72.5682C98.0488 72.0213 98.3365 71.5573 98.7129 71.1761C99.0917 70.7926 99.551 70.5002 100.091 70.299C100.633 70.0978 101.246 69.9972 101.93 69.9972C102.595 69.9972 103.178 70.1061 103.677 70.3239C104.179 70.5393 104.598 70.8317 104.934 71.201C105.273 71.5679 105.526 71.9811 105.694 72.4403C105.865 72.8996 105.95 73.3731 105.95 73.8608C105.95 74.2041 105.934 74.5521 105.9 74.9048C105.867 75.2576 105.797 75.5819 105.691 75.8778C105.584 76.1714 105.42 76.4081 105.197 76.5881C104.977 76.768 104.679 76.858 104.302 76.858C104.137 76.858 103.954 76.8319 103.756 76.7798C103.557 76.7277 103.38 76.6413 103.226 76.5206C103.073 76.3999 102.981 76.2377 102.953 76.0341H102.91C102.854 76.1714 102.766 76.3016 102.648 76.4247C102.532 76.5478 102.379 76.6461 102.189 76.7195C102.002 76.7929 101.774 76.8248 101.504 76.8153C101.196 76.8035 100.925 76.7348 100.691 76.6094C100.456 76.4815 100.26 76.3087 100.101 76.0909C99.9451 75.8707 99.8268 75.6162 99.7463 75.3274C99.6681 75.0362 99.6291 74.7225 99.6291 74.3864C99.6291 74.0668 99.6764 73.7744 99.7711 73.5092C99.8658 73.2441 99.9972 73.0121 100.165 72.8132C100.336 72.6143 100.535 72.4557 100.762 72.3374C100.992 72.2166 101.239 72.142 101.504 72.1136C101.741 72.09 101.956 72.1006 102.15 72.1456C102.345 72.1882 102.504 72.2533 102.63 72.3409C102.755 72.4261 102.835 72.5208 102.868 72.625H102.91V72.2273H103.663V75.4375C103.663 75.6364 103.719 75.8116 103.83 75.9631C103.941 76.1146 104.104 76.1903 104.317 76.1903C104.558 76.1903 104.743 76.1075 104.871 75.9418C105.001 75.776 105.09 75.5204 105.137 75.1747C105.187 74.8291 105.211 74.3864 105.211 73.8466C105.211 73.5294 105.168 73.2169 105.08 72.9091C104.995 72.599 104.865 72.3089 104.689 72.0391C104.517 71.7692 104.298 71.5312 104.032 71.3253C103.767 71.1193 103.456 70.9583 103.099 70.8423C102.743 70.724 102.34 70.6648 101.888 70.6648C101.331 70.6648 100.833 70.7512 100.393 70.924C99.9546 71.0945 99.5817 71.3442 99.274 71.6733C98.9686 72 98.7354 72.3977 98.5744 72.8665C98.4158 73.3329 98.3365 73.8632 98.3365 74.4574C98.3365 75.0611 98.4158 75.5973 98.5744 76.0661C98.7354 76.5348 98.9721 76.9302 99.2846 77.2521C99.5995 77.5741 99.9889 77.8179 100.453 77.9837C100.917 78.1518 101.452 78.2358 102.058 78.2358C102.318 78.2358 102.575 78.2109 102.829 78.1612C103.082 78.1115 103.306 78.0571 103.5 77.9979C103.694 77.9387 103.834 77.8949 103.919 77.8665L104.118 78.5199C103.971 78.5814 103.779 78.643 103.542 78.7045C103.308 78.7661 103.057 78.817 102.79 78.8572C102.524 78.8975 102.271 78.9176 102.03 78.9176ZM101.618 76.0909C101.935 76.0909 102.192 76.027 102.388 75.8991C102.585 75.7713 102.728 75.5784 102.818 75.3203C102.908 75.0623 102.953 74.7367 102.953 74.3438C102.953 73.946 102.903 73.6359 102.804 73.4134C102.704 73.1908 102.558 73.0346 102.363 72.9446C102.169 72.8546 101.93 72.8097 101.646 72.8097C101.376 72.8097 101.145 72.8807 100.954 73.0227C100.764 73.1624 100.619 73.3494 100.517 73.5838C100.417 73.8158 100.368 74.0691 100.368 74.3438C100.368 74.6468 100.408 74.9321 100.488 75.1996C100.569 75.4647 100.7 75.6802 100.883 75.8459C101.065 76.0092 101.31 76.0909 101.618 76.0909ZM111.068 72.767L110.315 72.9801C110.268 72.8546 110.198 72.7327 110.106 72.6143C110.016 72.4936 109.893 72.3942 109.737 72.3161C109.58 72.2379 109.38 72.1989 109.136 72.1989C108.803 72.1989 108.524 72.2758 108.302 72.4297C108.082 72.5812 107.972 72.7741 107.972 73.0085C107.972 73.2169 108.047 73.3814 108.199 73.5021C108.35 73.6229 108.587 73.7235 108.909 73.804L109.719 74.0028C110.206 74.1212 110.57 74.3023 110.809 74.5462C111.048 74.7876 111.168 75.099 111.168 75.4801C111.168 75.7926 111.078 76.072 110.898 76.3182C110.72 76.5644 110.472 76.7585 110.152 76.9006C109.832 77.0426 109.461 77.1136 109.037 77.1136C108.481 77.1136 108.02 76.9929 107.656 76.7514C107.291 76.5099 107.06 76.1572 106.963 75.6932L107.759 75.4943C107.834 75.7879 107.978 76.008 108.188 76.1548C108.401 76.3016 108.679 76.375 109.023 76.375C109.413 76.375 109.723 76.2921 109.953 76.1264C110.185 75.9583 110.301 75.7571 110.301 75.5227C110.301 75.3333 110.235 75.1747 110.102 75.0469C109.97 74.9167 109.766 74.8196 109.491 74.7557L108.582 74.5426C108.083 74.4242 107.716 74.2408 107.482 73.9922C107.25 73.7412 107.134 73.4276 107.134 73.0511C107.134 72.7434 107.22 72.4711 107.393 72.2344C107.568 71.9976 107.806 71.8118 108.107 71.6768C108.41 71.5419 108.753 71.4744 109.136 71.4744C109.676 71.4744 110.1 71.5928 110.408 71.8295C110.718 72.0663 110.938 72.3788 111.068 72.767ZM114.034 77.1278C113.689 77.1278 113.375 77.0627 113.093 76.9325C112.811 76.8 112.588 76.6094 112.422 76.3608C112.256 76.1098 112.173 75.8068 112.173 75.4517C112.173 75.1392 112.235 74.8859 112.358 74.6918C112.481 74.4953 112.646 74.3414 112.852 74.2301C113.058 74.1188 113.285 74.036 113.534 73.9815C113.785 73.9247 114.037 73.8797 114.29 73.8466C114.621 73.804 114.89 73.772 115.096 73.7507C115.304 73.727 115.456 73.688 115.551 73.6335C115.648 73.5791 115.696 73.4844 115.696 73.3494V73.321C115.696 72.9706 115.6 72.6984 115.409 72.5043C115.219 72.3101 114.932 72.2131 114.546 72.2131C114.146 72.2131 113.832 72.3007 113.605 72.4759C113.377 72.651 113.218 72.8381 113.125 73.0369L112.33 72.7528C112.472 72.4214 112.661 72.1634 112.898 71.9787C113.137 71.7917 113.397 71.6615 113.679 71.5881C113.963 71.5123 114.243 71.4744 114.517 71.4744C114.692 71.4744 114.894 71.4957 115.121 71.5384C115.351 71.5786 115.572 71.6626 115.785 71.7905C116 71.9183 116.179 72.1113 116.321 72.3693C116.463 72.6274 116.534 72.973 116.534 73.4062V77H115.696V76.2614H115.654C115.597 76.3797 115.502 76.5064 115.369 76.6413C115.237 76.7763 115.061 76.8911 114.84 76.9858C114.62 77.0805 114.352 77.1278 114.034 77.1278ZM114.162 76.375C114.494 76.375 114.773 76.3099 115 76.1797C115.23 76.0495 115.403 75.8814 115.519 75.6754C115.637 75.4695 115.696 75.2528 115.696 75.0256V74.2585C115.661 74.3011 115.583 74.3402 115.462 74.3757C115.343 74.4089 115.206 74.4384 115.05 74.4645C114.896 74.4882 114.746 74.5095 114.599 74.5284C114.454 74.545 114.337 74.5592 114.247 74.571C114.03 74.5994 113.826 74.6456 113.637 74.7095C113.45 74.7711 113.298 74.8646 113.182 74.9901C113.068 75.1132 113.012 75.2812 113.012 75.4943C113.012 75.7855 113.119 76.0057 113.335 76.1548C113.552 76.3016 113.828 76.375 114.162 76.375ZM118.675 77.0568C118.5 77.0568 118.349 76.9941 118.224 76.8686C118.098 76.7431 118.036 76.5928 118.036 76.4176C118.036 76.2424 118.098 76.0921 118.224 75.9666C118.349 75.8411 118.5 75.7784 118.675 75.7784C118.85 75.7784 119 75.8411 119.126 75.9666C119.251 76.0921 119.314 76.2424 119.314 76.4176C119.314 76.5336 119.284 76.6402 119.225 76.7372C119.168 76.8343 119.091 76.9124 118.994 76.9716C118.9 77.0284 118.793 77.0568 118.675 77.0568ZM123.105 77.1136C122.579 77.1136 122.126 76.9976 121.745 76.7656C121.366 76.5312 121.074 76.2045 120.868 75.7855C120.664 75.3641 120.562 74.8741 120.562 74.3153C120.562 73.7566 120.664 73.2642 120.868 72.8381C121.074 72.4096 121.36 72.0758 121.727 71.8366C122.096 71.5952 122.527 71.4744 123.02 71.4744C123.304 71.4744 123.584 71.5218 123.861 71.6165C124.138 71.7112 124.39 71.8651 124.618 72.0781C124.845 72.2888 125.026 72.5682 125.161 72.9162C125.296 73.2642 125.363 73.6927 125.363 74.2017V74.5568H121.159V73.8324H124.511C124.511 73.5246 124.449 73.25 124.326 73.0085C124.206 72.767 124.033 72.5765 123.808 72.4368C123.585 72.2971 123.323 72.2273 123.02 72.2273C122.686 72.2273 122.397 72.3101 122.153 72.4759C121.912 72.6392 121.726 72.8523 121.596 73.1151C121.465 73.3778 121.4 73.6596 121.4 73.9602V74.4432C121.4 74.8551 121.471 75.2043 121.613 75.4908C121.758 75.7749 121.958 75.9915 122.213 76.1406C122.469 76.2874 122.766 76.3608 123.105 76.3608C123.325 76.3608 123.524 76.33 123.701 76.2685C123.881 76.2045 124.036 76.1098 124.167 75.9844C124.297 75.8565 124.397 75.6979 124.468 75.5085L125.278 75.7358C125.193 76.0104 125.05 76.2519 124.848 76.4602C124.647 76.6662 124.399 76.8272 124.103 76.9432C123.807 77.0568 123.474 77.1136 123.105 77.1136ZM130.502 72.767L129.749 72.9801C129.702 72.8546 129.632 72.7327 129.539 72.6143C129.449 72.4936 129.326 72.3942 129.17 72.3161C129.014 72.2379 128.814 72.1989 128.57 72.1989C128.236 72.1989 127.958 72.2758 127.735 72.4297C127.515 72.5812 127.405 72.7741 127.405 73.0085C127.405 73.2169 127.481 73.3814 127.632 73.5021C127.784 73.6229 128.021 73.7235 128.343 73.804L129.152 74.0028C129.64 74.1212 130.003 74.3023 130.243 74.5462C130.482 74.7876 130.601 75.099 130.601 75.4801C130.601 75.7926 130.511 76.072 130.331 76.3182C130.154 76.5644 129.905 76.7585 129.586 76.9006C129.266 77.0426 128.894 77.1136 128.471 77.1136C127.914 77.1136 127.454 76.9929 127.089 76.7514C126.725 76.5099 126.494 76.1572 126.397 75.6932L127.192 75.4943C127.268 75.7879 127.411 76.008 127.622 76.1548C127.835 76.3016 128.113 76.375 128.456 76.375C128.847 76.375 129.157 76.2921 129.387 76.1264C129.619 75.9583 129.735 75.7571 129.735 75.5227C129.735 75.3333 129.668 75.1747 129.536 75.0469C129.403 74.9167 129.2 74.8196 128.925 74.7557L128.016 74.5426C127.516 74.4242 127.15 74.2408 126.915 73.9922C126.683 73.7412 126.567 73.4276 126.567 73.0511C126.567 72.7434 126.654 72.4711 126.826 72.2344C127.002 71.9976 127.239 71.8118 127.54 71.6768C127.843 71.5419 128.186 71.4744 128.57 71.4744C129.11 71.4744 129.533 71.5928 129.841 71.8295C130.151 72.0663 130.372 72.3788 130.502 72.767Z" fill="black"/>
</g>
<defs>
<clipPath id="clip0_10_749">
<rect width="206.558" height="208" fill="white" transform="translate(0.536316)"/>
</clipPath>
</defs>
</svg>
