<svg width="392" height="392" viewBox="0 0 392 392" fill="none" xmlns="http://www.w3.org/2000/svg">
<g clip-path="url(#clip0_16_11486)">
<path d="M227.289 195.055H116.393C115.714 195.055 115.165 195.605 115.165 196.283V203.38C115.165 204.058 115.714 204.608 116.393 204.608H227.289C227.967 204.608 228.517 204.058 228.517 203.38V196.283C228.517 195.605 227.967 195.055 227.289 195.055Z" fill="#0C0C0C"/>
<path d="M113.945 391.13C113.899 391.13 113.849 391.13 113.798 391.122C113.006 391.042 112.432 390.333 112.509 389.541L129.14 204.462C129.221 203.673 129.914 203.115 130.722 203.172C131.515 203.253 132.092 203.961 132.011 204.754L115.38 389.833C115.303 390.576 114.676 391.126 113.949 391.126L113.945 391.13Z" fill="#0C0C0C"/>
<path d="M229.737 391.13C229.006 391.13 228.378 390.576 228.305 389.837L211.674 204.758C211.594 203.965 212.171 203.257 212.964 203.176C213.803 203.119 214.465 203.673 214.546 204.466L231.176 389.545C231.257 390.337 230.68 391.046 229.887 391.126C229.837 391.13 229.787 391.134 229.741 391.134L229.737 391.13Z" fill="#0C0C0C"/>
<path d="M184.652 391.13C183.897 391.13 183.262 390.541 183.216 389.775L173.367 204.696C173.321 203.9 173.925 203.218 174.718 203.172C175.503 203.145 176.196 203.73 176.242 204.523L186.091 389.602C186.137 390.399 185.533 391.08 184.74 391.126C184.709 391.126 184.683 391.126 184.652 391.126V391.13Z" fill="#0C0C0C"/>
<path d="M181.503 200.724C181.503 200.724 234.259 236.58 259.365 280.599C284.471 324.618 309.727 388.367 309.727 388.367H382.343L382.77 381.177C383.213 373.722 378.267 367.017 371.016 365.235L345.383 358.939C345.383 358.939 298.824 241.176 265.958 203.538C233.093 165.9 213.937 160.716 213.937 160.716L181.5 200.728L181.503 200.724Z" fill="white" stroke="#0C0C0C" stroke-miterlimit="10"/>
<path d="M180.38 16.6578C173.648 15.1491 166.809 20.0718 165.107 27.6617C164.488 30.4251 164.938 33.1463 166.077 35.5672L165.034 48.4454L175.815 49.3883L175.965 43.9038C176.123 43.9461 176.28 44 176.442 44.0346C183.174 45.5434 187.554 40.6553 189.494 33.127C192.33 22.1193 187.115 18.1666 180.383 16.6578H180.38Z" fill="white" stroke="#0C0C0C" stroke-miterlimit="10"/>
<path d="M166.123 26.7571C166.123 26.7571 175.53 28.7777 177.678 20.5912C177.678 20.5912 186.484 34.8627 187.942 24.7557C187.942 24.7557 192.08 30.7868 192.838 25.5639C193.593 20.3411 182.296 8.82151 170.588 12.297C166.197 13.6018 160.427 16.1805 159.203 23.9551C158.137 30.7137 162.271 36.8102 166.054 36.5524L166.127 26.7609L166.123 26.7571Z" fill="#0C0C0C"/>
<path d="M169.522 27.8617C168.968 25.637 166.966 24.2553 165.053 24.7749C163.137 25.2983 162.032 27.523 162.586 29.7476C163.141 31.9722 165.142 33.3539 167.055 32.8343C168.972 32.3109 170.076 30.0863 169.522 27.8617Z" fill="white"/>
<path d="M167.089 5.99642C168.556 10.3533 166.828 14.8718 163.229 16.0842C159.63 17.2966 155.52 14.7448 154.053 10.3879C152.587 6.03106 154.315 1.51253 157.914 0.300148C161.513 -0.912235 165.623 1.63954 167.089 5.99642Z" fill="#0C0C0C"/>
<path d="M276.926 65.8178L270.626 57.2886C270.5 57.1176 270.259 57.0814 270.088 57.2077L242.915 77.2778C242.744 77.4041 242.708 77.6451 242.834 77.8161L249.134 86.3453C249.26 86.5163 249.501 86.5525 249.672 86.4262L276.845 66.3561C277.016 66.2298 277.052 65.9888 276.926 65.8178Z" fill="#0C0C0C"/>
<path d="M269.699 66.6502C269.48 66.6502 269.261 66.5501 269.118 66.3577C268.883 66.0383 268.949 65.5879 269.268 65.3493L271.239 63.8906C271.555 63.6558 272.009 63.7213 272.247 64.0407C272.482 64.3602 272.417 64.8105 272.093 65.0491L270.123 66.5078C269.996 66.604 269.846 66.6502 269.696 66.6502H269.699Z" fill="#0C0C0C"/>
<path d="M266.043 69.3483C265.824 69.3483 265.604 69.2483 265.462 69.0558C265.227 68.7364 265.293 68.2822 265.616 68.0474L267.598 66.581C267.914 66.3463 268.368 66.4117 268.606 66.7311C268.841 67.0506 268.776 67.5047 268.452 67.7395L266.47 69.2059C266.343 69.3022 266.193 69.3483 266.043 69.3483Z" fill="#0C0C0C"/>
<path d="M271.724 72.6582L271.697 64.3717C271.689 62.3626 270.092 60.9501 268.248 61.3234C267.101 61.5543 266.147 62.4357 265.7 63.5673C264.958 62.8822 263.907 62.5435 262.833 62.7898C261.34 63.1285 260.297 64.4833 260.351 66.0151L260.37 66.5501C259.723 66.1537 258.923 66.0074 258.13 66.2191C256.802 66.5771 255.917 67.8279 256.021 69.1981L256.509 75.6834C250.424 78.8625 247.292 87.6032 247.292 87.6032C247.292 87.6032 252.145 97.5063 256.756 94.0577C261.367 90.6092 272.501 81.5991 271.72 72.6621L271.724 72.6582Z" fill="white" stroke="#0C0C0C" stroke-miterlimit="10"/>
<path d="M157.244 185.306C157.244 185.306 164.264 194.316 157.906 195.309C151.548 196.302 120.326 195.309 120.326 195.309C120.326 195.309 118.04 189.601 123.367 188.397C128.694 187.196 142.268 185.302 142.268 185.302H157.24L157.244 185.306Z" fill="white" stroke="#0C0C0C" stroke-miterlimit="10"/>
<path d="M179.271 47.3752V52.6289C179.271 52.6289 193.073 59.0834 198.735 61.8199C208.653 66.6194 227.328 112.886 227.328 112.886L242.465 84.5549L261.294 93.5343C261.294 93.5343 251.367 140.717 239.409 148.561C229.733 154.908 201.625 141.956 201.625 141.956L186.853 98.5262L162.236 91.3289L155.835 47.3175L162.109 50.7545L163.906 44.3115L179.271 47.3752Z" fill="#10069F"/>
<path d="M239.405 148.557C239.405 148.557 269.118 159.353 280.93 169.541C292.742 179.729 290.756 198.677 281.608 217.255C272.463 235.834 227.093 309.997 227.093 309.997L241.691 316.932C249.228 320.516 252.845 329.21 250.07 337.077L248.777 340.749L180.233 318.938C180.233 318.938 187.35 303.896 195.96 292.523C204.569 281.15 238.924 203.923 238.924 203.923L206.756 192.538L239.409 148.557H239.405Z" fill="white" stroke="#0C0C0C" stroke-miterlimit="10"/>
<path d="M241.934 149.508L212.637 194.62L233.124 201.871L256.371 155.512C250.355 152.81 244.955 150.667 241.938 149.508H241.934Z" fill="#0C0C0C"/>
<path d="M212.163 225.176L235.345 188.755L226.931 173.486L196.452 211.925C201.055 215.589 206.432 220.053 212.163 225.176Z" fill="#0C0C0C"/>
<path d="M186.672 55.2269C186.672 55.2269 193.927 73.9861 197.553 89.4468C201.179 104.908 208.661 137.807 208.661 137.807C208.661 137.807 241.553 147.568 256.367 154.042C256.367 154.042 213.745 204.573 206.34 221C206.34 221 168.606 192.927 158.499 177.485L157.425 48.1104L160.535 49.6383C160.535 49.6383 179.529 83.2502 182.173 93.9076C182.173 93.9076 187.3 65.5225 184.567 54.5071L186.672 55.223V55.2269Z" fill="#FF3D00"/>
<path d="M162.302 53.6374C162.302 53.6374 156.64 44.4695 148.65 44.4695C140.66 44.4695 132.408 50.67 132.408 70.8302C132.408 90.9904 130.464 185.533 137.865 185.991C145.27 186.449 157.402 186.63 157.402 186.63C157.402 186.63 164.734 186.422 166.166 159.242C167.598 132.061 167.236 64.7451 162.302 53.6336V53.6374Z" fill="#10069F"/>
<path d="M209.284 267.86C203.588 279.491 198.577 289.063 195.956 292.523C187.346 303.896 180.229 318.937 180.229 318.937L248.773 340.749L250.066 337.077C252.841 329.206 249.227 320.512 241.688 316.932L227.089 309.997C227.089 309.997 233.959 298.766 242.892 283.952L209.28 267.86H209.284Z" fill="white" stroke="#0C0C0C" stroke-miterlimit="10"/>
<path d="M332.809 328.664L288.847 339.544C301.067 366.501 309.227 391.157 309.227 391.157H382.801L382.774 381.177C383.217 373.722 378.271 367.017 371.02 365.235L345.387 358.939C345.387 358.939 340.51 346.611 332.809 328.667V328.664Z" fill="white" stroke="#0C0C0C" stroke-miterlimit="10"/>
<path d="M239.101 203.415L245.964 188.928" stroke="#0C0C0C" stroke-linecap="round" stroke-linejoin="round"/>
<path d="M182.874 148.373L208.661 137.804L189.32 139.528" stroke="#0C0C0C" stroke-linecap="round" stroke-linejoin="round"/>
<path d="M220.746 124.814L226.85 113.541L219.545 117.328" stroke="#0C0C0C" stroke-linecap="round" stroke-linejoin="round"/>
<path d="M265.05 63.1016C265.05 63.1016 267.313 63.5134 267.975 75.7796" stroke="#0C0C0C" stroke-linecap="round" stroke-linejoin="round"/>
<path d="M259.827 66.25C259.827 66.25 262.09 66.6618 262.752 78.9281" stroke="#0C0C0C" stroke-linecap="round" stroke-linejoin="round"/>
<path d="M256.513 75.6836L256.944 81.0604" stroke="#0C0C0C" stroke-linecap="round" stroke-linejoin="round"/>
<path d="M307.557 386.304H382.786" stroke="#0C0C0C" stroke-linecap="round" stroke-linejoin="round"/>
<path d="M183.308 315.2L250.067 337.077" stroke="#0C0C0C" stroke-linecap="round" stroke-linejoin="round"/>
<path d="M120.249 296.122C119.872 296.122 119.568 295.818 119.568 295.441V277.547C119.568 270.446 113.787 264.665 106.686 264.665C99.5847 264.665 93.8038 270.446 93.8038 277.547V295.441C93.8038 295.818 93.4997 296.122 93.1225 296.122C92.7453 296.122 92.4413 295.818 92.4413 295.441V277.547C92.4413 269.692 98.8304 263.303 106.686 263.303C114.541 263.303 120.93 269.692 120.93 277.547V295.441C120.93 295.818 120.626 296.122 120.249 296.122Z" fill="#0C0C0C"/>
<path d="M147.957 392H70.476C69.4907 392 68.7017 391.184 68.7363 390.199L72.1118 291.599C72.1425 290.66 72.9123 289.917 73.8514 289.917H144.585C145.524 289.917 146.294 290.66 146.325 291.599L149.7 390.199C149.735 391.184 148.946 392 147.961 392H147.957Z" fill="#10069F"/>
<path d="M132.104 392H61.1734C60.1881 392 59.3991 391.184 59.4337 390.199L62.8091 291.599C62.8399 290.66 63.6097 289.917 64.5488 289.917H136.965L133.843 390.314C133.812 391.253 133.043 392.004 132.104 392.004V392Z" fill="#10069F"/>
<path d="M107.994 392H10.7498C9.66441 392 8.80227 391.092 8.85615 390.01L13.0244 307.71C13.0745 306.702 13.9097 305.909 14.9181 305.909H103.83C104.838 305.909 105.674 306.702 105.724 307.71L109.892 390.01C109.946 391.092 109.084 392 107.998 392H107.994Z" fill="#002EFF"/>
<path d="M74.9676 314.662C74.5904 314.662 74.2864 314.358 74.2864 313.98V292.504C74.2864 283.902 67.2892 276.904 58.687 276.904C50.0849 276.904 43.0877 283.902 43.0877 292.504V313.98C43.0877 314.358 42.7836 314.662 42.4065 314.662C42.0293 314.662 41.7252 314.358 41.7252 313.98V292.504C41.7252 283.151 49.3344 275.542 58.687 275.542C68.0397 275.542 75.6489 283.151 75.6489 292.504V313.98C75.6489 314.358 75.3448 314.662 74.9676 314.662Z" fill="#0C0C0C"/>
<path d="M112.863 296.122C112.486 296.122 112.182 295.818 112.182 295.441V277.547C112.182 270.446 106.401 264.665 99.3 264.665C92.1989 264.665 86.4179 270.446 86.4179 277.547V295.441C86.4179 295.818 86.1138 296.122 85.7367 296.122C85.3595 296.122 85.0554 295.818 85.0554 295.441V277.547C85.0554 269.692 91.4445 263.303 99.3 263.303C107.155 263.303 113.544 269.692 113.544 277.547V295.441C113.544 295.818 113.24 296.122 112.863 296.122Z" fill="#0C0C0C"/>
<path d="M164.468 26.4531C164.468 26.4531 167.151 28.162 167.532 30.3097" stroke="#0C0C0C" stroke-linecap="round" stroke-linejoin="round"/>
<path d="M164.365 30.4981L166.712 28.7969" stroke="#0C0C0C" stroke-linecap="round" stroke-linejoin="round"/>
</g>
<defs>
<clipPath id="clip0_16_11486">
<rect width="392" height="392" fill="white"/>
</clipPath>
</defs>
</svg>
