<svg width="392" height="314" viewBox="0 0 392 314" fill="none" xmlns="http://www.w3.org/2000/svg">
<path d="M255.506 65.811L254.228 64.8482C246.052 58.6771 240.062 52.6704 235.78 44.7676C235.034 25.6696 205.053 7.88588 195.064 15.7624C194.761 15.9989 184.818 10.1795 171.119 14.0931C170.708 12.7721 170.179 11.4512 169.489 10.1598C165.073 1.8857 156.486 -2.14619 150.309 1.14964C147.154 2.83534 145.245 6.11146 144.719 10.0152C138.348 10.1828 132.857 13.104 130.593 18.2104C127.12 26.0507 132.571 36.0664 142.767 40.5846C143.181 40.7686 143.595 40.9329 144.01 41.0939C139.935 48.5005 134.27 54.3265 126.637 60.3464L125.381 61.3388C108.301 74.808 108.534 98.7233 120.653 109.702L124.146 112.899C124.685 113.392 125.243 113.865 125.818 114.318C127.905 115.968 128.924 118.334 128.506 120.779C127.734 125.317 127.872 130.048 129.167 134.843C133.994 152.676 153.509 165.087 175.259 164.009C178.095 163.868 180.855 163.516 183.523 162.977C190.519 166.871 198.81 169.263 207.8 169.52C229.57 170.141 248.816 157.322 253.268 139.387C254.464 134.567 254.5 129.832 253.633 125.31C253.166 122.875 254.132 120.49 256.183 118.794C256.745 118.327 257.293 117.844 257.822 117.338L261.246 114.069C273.132 102.837 272.859 78.922 255.499 65.8176L255.506 65.811Z" fill="#0C0C0C"/>
<path d="M177.086 119.602L191.922 120.66L212.962 119.586L251.934 121.889C251.934 121.889 304.694 125.136 303.524 203.296C303.504 204.578 302.679 205.708 301.427 205.991L257.878 214.909C259.114 241.932 260.294 274.365 260.461 284.394L252.788 284.351L191.048 283.97L124.1 284.394C124.379 274.207 124.98 242.399 126.554 214.909L86.6332 207.627C85.3714 207.407 84.4809 206.319 84.4053 205.041C78.6088 106.146 177.089 119.599 177.089 119.599L177.086 119.602Z" fill="#42E8B4"/>
<path d="M231.742 85.0832L228.945 57.9806C224.168 50.6627 211.737 48.7535 207.113 43.4434C203.44 39.2209 202.345 34.3971 202.135 30.7727L201.744 34.7356C199.966 52.8084 186.905 66.3269 172.532 65.0158L172.551 65.213L167.856 65.3773C161.527 65.5974 156.529 70.9536 156.749 77.2823L156.759 77.5452C156.979 83.874 162.335 88.872 168.664 88.6518L171.7 88.5467L170.416 130.413C170.491 141.743 181.677 148.128 193.191 148.049H193.667C205.181 147.967 214.536 138.631 214.461 127.301L214.359 112.225C225.528 108.43 233.007 97.3169 231.745 85.0865L231.742 85.0832Z" fill="white" stroke="#0C0C0C" stroke-linecap="round" stroke-linejoin="round"/>
<path d="M142.363 134.856L111.764 126.799L88.3222 120.9C74.2714 118.37 59.9741 123.805 51.1513 135.03C51.1513 135.03 44.369 143.823 44.024 155.833C43.771 155.787 40.4456 211.067 48.8839 243.848C60.1844 287.755 127.872 272.906 127.872 272.906L130.254 214.909L104.857 209.014L90.5106 181.776C93.7868 181.651 96.8887 180.741 99.3269 178.52C109.027 169.687 90.2346 157.312 90.2346 157.312C96.2972 160.805 101.105 168.409 101.105 168.409C101.105 168.409 104.394 172.083 109.004 165.261C112.004 160.818 110.548 158.899 110.548 158.899C114.387 156.077 116.118 151.098 114.61 146.577C113.67 143.761 111.86 141.346 110.167 139.545L126.857 144.234L133.442 145.798C138.699 147.047 144.01 144.727 145.892 140.357C146.891 138.033 145.186 135.378 142.36 134.856H142.363Z" fill="white" stroke="#0C0C0C" stroke-linecap="round" stroke-linejoin="round"/>
<path d="M266.318 91.2872C275.278 89.404 281.118 81.1048 279.362 72.7506C277.606 64.3964 268.919 59.1506 259.959 61.0338C250.999 62.9171 245.159 71.2162 246.915 79.5704C248.671 87.9246 257.358 93.1704 266.318 91.2872Z" fill="#227B5F"/>
<path d="M263.901 89.4477C272.86 87.5645 278.7 79.2654 276.944 70.9111C275.188 62.5569 266.502 57.3111 257.542 59.1943C248.582 61.0776 242.742 69.3767 244.498 77.7309C246.254 86.0852 254.941 91.331 263.901 89.4477Z" fill="#42E8B4"/>
<path d="M261.25 86.851C257.211 86.851 253.271 85.1193 250.781 81.8465C248.819 79.267 248.024 76.0928 248.54 72.9054C249.092 69.5044 251.04 66.5109 254.027 64.4736C259.985 60.4088 268.229 61.5655 272.402 67.0498C274.364 69.6293 275.159 72.8035 274.643 75.9909C274.091 79.3919 272.143 82.3854 269.156 84.4227C266.754 86.0624 263.98 86.851 261.25 86.851ZM261.937 62.8207C259.36 62.8207 256.738 63.5666 254.467 65.1176C251.658 67.0333 249.824 69.8428 249.309 73.0302C248.825 76.004 249.568 78.968 251.398 81.3733C255.325 86.5323 263.09 87.6134 268.712 83.7787C271.522 81.8629 273.355 79.0534 273.871 75.866C274.354 72.8922 273.612 69.9283 271.781 67.5229C269.442 64.4473 265.735 62.824 261.937 62.824V62.8207Z" fill="white"/>
<path d="M336.742 118.265C335.769 112.36 334.619 106.485 333.259 100.655C331.093 91.3825 329.079 81.449 324.403 73.1059C323.594 69.672 321.275 66.6128 318.107 64.8055C314.367 63.3465 304.027 54.5599 304.027 54.5599C302.604 53.2882 300.501 53.5018 299.676 55.0002C298.762 56.653 298.71 58.6312 299.38 60.4385C294.583 57.7341 290.199 54.9772 290.199 54.9772C288.159 53.6234 285.543 54.2411 284.784 56.2554C283.864 58.6936 284.317 61.4473 285.812 63.731C282.707 62.0552 280.423 60.7276 280.423 60.7276C278.334 59.4362 275.448 60.3037 274.446 62.5218C272.563 66.6982 274.196 71.4432 278.278 73.6481L283.387 76.4116C291.32 79.9538 295.407 86.3779 295.674 93.5249C295.858 98.4309 292.365 103.974 287.199 104.917L285.688 105.082C282.77 105.4 279.848 104.424 277.732 102.39C275.393 100.14 273.677 97.3333 272.8 94.1985L271.965 91.2346C270.608 87.6956 266.619 85.7536 262.673 86.7098C260.816 87.16 259.557 88.8194 259.725 90.5971L261.266 106.915C261.756 112.097 264.881 116.661 269.662 119.175L291.178 130.492C291.063 130.525 290.998 130.541 290.998 130.541L281.781 207.555L257.872 214.915L260.254 272.913C260.254 272.913 327.942 287.759 339.242 243.855C343.632 226.797 342.946 208.064 342.436 190.612C341.841 170.308 341 149.971 338.421 129.805C337.928 125.951 337.369 122.103 336.738 118.272L336.742 118.265Z" fill="white" stroke="#0C0C0C" stroke-linecap="round" stroke-linejoin="round"/>
<path d="M129.265 157.838H265.311C266.757 157.838 267.93 159.011 267.93 160.457V175.392H125.743V161.36C125.743 159.415 127.32 157.838 129.265 157.838Z" fill="#F3F5FF"/>
<path d="M154.613 164.094H239.96C241.406 164.094 242.579 165.267 242.579 166.713V175.392H151.091V167.62C151.091 165.675 152.668 164.098 154.613 164.098V164.094Z" fill="#002EFF"/>
<path d="M175.584 144.086H217.793C224.069 144.086 229.162 149.179 229.162 155.456V173.311C229.162 174.215 228.426 174.951 227.522 174.951H165.851C164.948 174.951 164.212 174.215 164.212 173.311V155.456C164.212 149.179 169.305 144.086 175.581 144.086H175.584Z" fill="#10069F"/>
<path d="M181.01 150.31H212.368C218.023 150.31 222.613 154.9 222.613 160.555V174.951H170.764V160.555C170.764 154.9 175.354 150.31 181.01 150.31Z" fill="#F3F5FF"/>
<path d="M268.804 206.654H123.515V302.999H268.804V206.654Z" fill="white" stroke="#0C0C0C" stroke-linecap="round" stroke-linejoin="round"/>
<path d="M272.379 302.615H119.94C119.414 302.615 118.987 303.041 118.987 303.567V312.068C118.987 312.595 119.414 313.021 119.94 313.021H272.379C272.906 313.021 273.332 312.595 273.332 312.068V303.567C273.332 303.041 272.906 302.615 272.379 302.615Z" fill="#002EFF"/>
<path d="M273.04 309.341H119.279C119.118 309.341 118.987 309.472 118.987 309.633V312.725C118.987 312.887 119.118 313.018 119.279 313.018H273.04C273.201 313.018 273.332 312.887 273.332 312.725V309.633C273.332 309.472 273.201 309.341 273.04 309.341Z" fill="#10069F"/>
<path d="M209.216 180.633H183.329V207.982H209.216V180.633Z" fill="#002EFF"/>
<path d="M183.329 207.982H157.443L160.328 180.633H183.329V207.982Z" fill="#F3F5FF"/>
<path d="M157.443 207.982H131.556L134.441 180.633H160.328L157.443 207.982Z" fill="#002EFF"/>
<path d="M131.631 207.982H105.744L114.022 180.633H134.516L131.631 207.982Z" fill="#F3F5FF"/>
<path d="M131.625 207.982C131.625 212.26 125.868 215.73 118.767 215.73C111.666 215.73 105.909 212.26 105.909 207.982" fill="#002EFF"/>
<path d="M157.4 207.982C157.4 212.26 151.643 215.73 144.542 215.73C137.441 215.73 131.684 212.26 131.684 207.982" fill="#10069F"/>
<path d="M183.287 207.982C183.287 212.26 177.53 215.73 170.429 215.73C163.328 215.73 157.571 212.26 157.571 207.982" fill="#002EFF"/>
<path d="M208.99 207.982H235.731L231.991 180.633H208.99V207.982Z" fill="#F3F5FF"/>
<path d="M235.261 207.982H261.148L258.263 180.633H232.376L235.261 207.982Z" fill="#002EFF"/>
<path d="M260.688 207.982H286.575L278.301 180.633H257.803L260.688 207.982Z" fill="#F3F5FF"/>
<path d="M260.642 207.982C260.642 212.26 266.448 215.73 273.608 215.73C280.768 215.73 286.575 212.26 286.575 207.982" fill="#002EFF"/>
<path d="M235.563 207.982C235.563 212.26 241.176 215.73 248.103 215.73C255.029 215.73 260.642 212.26 260.642 207.982" fill="#10069F"/>
<path d="M209.059 207.982C209.059 212.26 214.993 215.73 222.311 215.73C229.629 215.73 235.563 212.26 235.563 207.982" fill="#002EFF"/>
<path d="M209.059 207.982C209.059 212.26 203.302 215.73 196.201 215.73C189.1 215.73 183.343 212.26 183.343 207.982" fill="#10069F"/>
<path d="M278.869 173.775H114.258C113.355 173.775 112.622 174.508 112.622 175.411V180.376C112.622 181.28 113.355 182.013 114.258 182.013H278.869C279.773 182.013 280.506 181.28 280.506 180.376V175.411C280.506 174.508 279.773 173.775 278.869 173.775Z" fill="#10069F"/>
<path d="M190.053 220.008H138.456C138.113 220.008 137.835 220.286 137.835 220.629V293.864C137.835 294.207 138.113 294.485 138.456 294.485H190.053C190.396 294.485 190.674 294.207 190.674 293.864V220.629C190.674 220.286 190.396 220.008 190.053 220.008Z" fill="#002EFF"/>
<path d="M185.626 224.652H143.375V248.794H185.626V224.652Z" fill="#F3F5FF"/>
<path d="M185.626 255.954H143.375V289.714H185.626V255.954Z" fill="#F3F5FF"/>
<path d="M196.072 294.386H132.466C132.103 294.386 131.809 294.681 131.809 295.044V301.74C131.809 302.103 132.103 302.398 132.466 302.398H196.072C196.435 302.398 196.73 302.103 196.73 301.74V295.044C196.73 294.681 196.435 294.386 196.072 294.386Z" fill="#10069F"/>
<path d="M175.17 233.425H153.562C153.404 233.425 153.276 233.553 153.276 233.711V240.086C153.276 240.244 153.404 240.372 153.562 240.372H175.17C175.328 240.372 175.456 240.244 175.456 240.086V233.711C175.456 233.553 175.328 233.425 175.17 233.425Z" fill="#002EFF"/>
<path d="M257.33 227.376H201.826C201.376 227.376 201.011 227.74 201.011 228.191V279.025C201.011 279.475 201.376 279.839 201.826 279.839H257.33C257.78 279.839 258.144 279.475 258.144 279.025V228.191C258.144 227.74 257.78 227.376 257.33 227.376Z" fill="#10069F"/>
<path d="M260.934 276.945H199.388C199.101 276.945 198.869 277.177 198.869 277.464V282.33C198.869 282.617 199.101 282.849 199.388 282.849H260.934C261.221 282.849 261.453 282.617 261.453 282.33V277.464C261.453 277.177 261.221 276.945 260.934 276.945Z" fill="#002EFF"/>
<path d="M254.234 232.784H204.925V272.462H254.234V232.784Z" fill="#F3F5FF"/>
<path d="M291.017 130.426C291.017 130.426 298.68 135.142 308.239 132.404L291.017 130.426Z" fill="white"/>
<path d="M291.017 130.426C291.017 130.426 298.68 135.142 308.239 132.404" stroke="#0C0C0C" stroke-linecap="round" stroke-linejoin="round"/>
<path d="M277.811 230.277L280.509 214.738" stroke="#0C0C0C" stroke-linecap="round" stroke-linejoin="round"/>
<path d="M282.75 62.0453C282.75 62.0453 305.574 74.7719 307.5 76.9702C309.902 79.7172 313.047 87.62 313.047 87.62" stroke="#0C0C0C" stroke-linecap="round" stroke-linejoin="round"/>
<path d="M298.467 59.9948C298.467 59.9948 317.414 69.2415 319.388 76.4476" stroke="#0C0C0C" stroke-linecap="round" stroke-linejoin="round"/>
<path d="M91.0528 181.868C91.0528 181.868 84.5729 183.436 74.8267 176.302" stroke="#0C0C0C" stroke-linecap="round" stroke-linejoin="round"/>
<path d="M110.811 159.55C110.811 159.55 105.889 144.773 95.1931 144.641" stroke="#0C0C0C" stroke-linecap="round" stroke-linejoin="round"/>
<path d="M104.857 209.017L110.811 223.209" stroke="#0C0C0C" stroke-linecap="round" stroke-linejoin="round"/>
<path d="M311.992 239.172C311.699 239.172 311.466 238.939 311.466 238.647V224.816C311.466 219.328 307 214.859 301.509 214.859C296.019 214.859 291.553 219.325 291.553 224.816V238.647C291.553 238.939 291.32 239.172 291.027 239.172C290.735 239.172 290.501 238.939 290.501 238.647V224.816C290.501 218.747 295.44 213.808 301.509 213.808C307.579 213.808 312.517 218.747 312.517 224.816V238.647C312.517 238.939 312.284 239.172 311.992 239.172Z" fill="#0C0C0C"/>
<path d="M333.406 313.268H273.529C272.77 313.268 272.156 312.637 272.185 311.878L274.795 235.676C274.818 234.95 275.416 234.375 276.138 234.375H330.804C331.53 234.375 332.125 234.953 332.148 235.676L334.757 311.878C334.783 312.637 334.172 313.268 333.413 313.268H333.41H333.406Z" fill="#FF3D00"/>
<path d="M321.156 313.268H266.34C265.581 313.268 264.966 312.637 264.996 311.878L267.605 235.676C267.628 234.95 268.226 234.375 268.949 234.375H324.912L322.5 311.963C322.477 312.689 321.879 313.268 321.156 313.268Z" fill="#FF3D00"/>
<path d="M306.281 239.172C305.988 239.172 305.755 238.939 305.755 238.647V224.816C305.755 219.328 301.289 214.859 295.798 214.859C290.308 214.859 285.842 219.325 285.842 224.816V238.647C285.842 238.939 285.609 239.172 285.316 239.172C285.024 239.172 284.79 238.939 284.79 238.647V224.816C284.79 218.747 289.729 213.808 295.798 213.808C301.868 213.808 306.806 218.747 306.806 224.816V238.647C306.806 238.939 306.573 239.172 306.281 239.172Z" fill="#0C0C0C"/>
<path d="M105.235 239.172C104.943 239.172 104.709 238.939 104.709 238.647V224.816C104.709 219.328 100.244 214.859 94.7528 214.859C89.262 214.859 84.7963 219.325 84.7963 224.816V238.647C84.7963 238.939 84.563 239.172 84.2706 239.172C83.9781 239.172 83.7448 238.939 83.7448 238.647V224.816C83.7448 218.747 88.6836 213.808 94.7528 213.808C100.822 213.808 105.761 218.747 105.761 224.816V238.647C105.761 238.939 105.528 239.172 105.235 239.172Z" fill="#0C0C0C"/>
<path d="M126.65 313.268H66.7728C66.0137 313.268 65.3992 312.637 65.4288 311.878L68.0379 235.676C68.0609 234.95 68.6589 234.375 69.3818 234.375H124.047C124.773 234.375 125.368 234.953 125.391 235.676L128 311.878C128.027 312.637 127.415 313.268 126.656 313.268H126.653H126.65Z" fill="#FF3D00"/>
<path d="M114.4 313.268H59.5831C58.824 313.268 58.2095 312.637 58.2391 311.878L60.8482 235.676C60.8712 234.95 61.4692 234.375 62.1921 234.375H118.156L115.744 311.963C115.721 312.689 115.123 313.268 114.4 313.268Z" fill="#FF3D00"/>
<path d="M99.5241 239.172C99.2316 239.172 98.9983 238.939 98.9983 238.647V224.816C98.9983 219.328 94.5327 214.859 89.0418 214.859C83.551 214.859 79.0853 219.325 79.0853 224.816V238.647C79.0853 238.939 78.852 239.172 78.5596 239.172C78.2671 239.172 78.0338 238.939 78.0338 238.647V224.816C78.0338 218.747 82.9726 213.808 89.0418 213.808C95.111 213.808 100.05 218.747 100.05 224.816V238.647C100.05 238.939 99.8165 239.172 99.5241 239.172Z" fill="#0C0C0C"/>
<path d="M390.71 313.268H324.738C324.002 313.268 323.417 312.653 323.456 311.917L326.286 256.085C326.319 255.402 326.884 254.863 327.567 254.863H387.881C388.565 254.863 389.13 255.398 389.163 256.085L391.992 311.917C392.028 312.653 391.443 313.268 390.71 313.268Z" fill="#42E8B4"/>
<path d="M368.307 260.801C368.05 260.801 367.843 260.597 367.843 260.337V245.764C367.843 239.931 363.098 235.18 357.259 235.18C351.42 235.18 346.675 239.925 346.675 245.764V260.337C346.675 260.594 346.471 260.801 346.212 260.801C345.952 260.801 345.748 260.597 345.748 260.337V245.764C345.748 239.419 350.911 234.256 357.256 234.256C363.601 234.256 368.763 239.415 368.763 245.764V260.337C368.763 260.594 368.56 260.801 368.3 260.801H368.307Z" fill="#0C0C0C"/>
<path d="M67.2559 313.324H1.28341C0.547354 313.324 -0.0375487 312.709 0.00188299 311.973L2.8311 256.141C2.86396 255.458 3.42915 254.919 4.11263 254.919H64.4267C65.1101 254.919 65.6753 255.454 65.7082 256.141L68.5374 311.973C68.5735 312.709 67.9886 313.324 67.2559 313.324Z" fill="#42E8B4"/>
<path d="M44.8488 260.856C44.5925 260.856 44.3854 260.653 44.3854 260.393V245.82C44.3854 239.987 39.6405 235.236 33.8013 235.236C27.9621 235.236 23.2172 239.981 23.2172 245.82V260.393C23.2172 260.649 23.0135 260.856 22.7539 260.856C22.4943 260.856 22.2906 260.653 22.2906 260.393V245.82C22.2906 239.475 27.4528 234.312 33.798 234.312C40.1432 234.312 45.3055 239.471 45.3055 245.82V260.393C45.3055 260.649 45.1018 260.856 44.8422 260.856H44.8488Z" fill="#0C0C0C"/>
<path d="M268.814 77.6781C268.308 78.5089 267.478 79.2577 266.324 79.9243C265.18 80.5843 263.972 80.851 262.698 80.7244C261.429 80.5795 260.295 80.0562 259.297 79.1543L257.686 80.0843L256.786 78.5255L258.103 77.7655C258.025 77.6567 257.915 77.4811 257.775 77.2386C257.629 76.9845 257.525 76.7907 257.463 76.657L256.146 77.417L255.246 75.8581L256.84 74.9381C256.504 73.5306 256.603 72.2344 257.135 71.0495C257.667 69.8647 258.505 68.9423 259.648 68.2823C260.791 67.6223 261.853 67.3017 262.834 67.3205L264.304 69.8666C263.303 69.7056 262.352 69.8852 261.451 70.4052C260.32 71.0585 259.747 72.0128 259.732 73.2681L262.815 71.4881L263.715 73.047L260.147 75.107C260.271 75.3744 260.389 75.6062 260.503 75.8025C260.609 75.9872 260.699 76.1282 260.77 76.2255L264.355 74.1555L265.255 75.7143L262.155 77.5043C263.175 78.0704 264.245 78.0301 265.365 77.3834C266.311 76.8367 266.968 76.0805 267.334 75.1147L268.814 77.6781Z" fill="white"/>
</svg>
