<svg xmlns="http://www.w3.org/2000/svg" width="240" height="240" fill="none" xmlns:v="https://vecta.io/nano"><path d="M119.853 223.704c57.356 0 103.852-46.496 103.852-103.852S177.209 16 119.853 16 16.001 62.496 16.001 119.852s46.496 103.852 103.852 103.852z" fill="#f3f5ff"/><g clip-path="url(#A)"><g fill="#fff"><path d="M124.921 85.865c0 2.185 2.354 3.542 4.263 2.46a2.86 2.86 0 0 0 1.421-2.46c0-2.185-2.354-3.542-4.263-2.46a2.86 2.86 0 0 0-1.421 2.46z"/><path d="M147.973 120.706h-53.51c-4.304 0-7.789-3.484-7.789-7.788s3.484-7.789 7.789-7.789h53.514c4.304 0 7.788 3.484 7.788 7.789s-3.492 7.788-7.796 7.788h.004z" stroke="#0c0c0c" stroke-linejoin="round"/></g><path d="M147.973 140.644h-53.51c-4.304 0-7.789-3.485-7.789-7.789s3.484-7.789 7.789-7.789h53.514c4.304 0 7.788 3.485 7.788 7.789s-3.492 7.789-7.796 7.789h.004z" fill="#002eff"/><use href="#B" fill="#fff"/><g stroke="#0c0c0c" stroke-linejoin="round"><g stroke-linecap="round"><use href="#B"/><path d="M130.149 154.658l1.072 19.403m7.135-14.711l1.016 16.316m6.574-11.969l.512 14.38M91.182 114.93l7.886-4.528"/><path d="M91.197 110.402l7.874 4.548"/><path d="M95.133 108.129v9.096m7.231-2.307l7.886-4.527"/><path d="M102.377 110.391l7.878 4.548"/><path d="M106.315 108.117v9.096m7.304-2.283l7.886-4.528"/><path d="M113.635 110.402l7.878 4.548"/><path d="M117.57 108.129v9.096"/></g><use href="#C" fill="#fff" stroke-miterlimit="10"/></g><g fill="#002eff"><path d="M119.741 73.554c5.232 0 9.474-4.242 9.474-9.474s-4.242-9.474-9.474-9.474-9.474 4.242-9.474 9.474 4.241 9.474 9.474 9.474zm18.605 16.192c-4.612 5.022-11.096 8.148-18.279 8.148s-13.668-3.126-18.28-8.148c2.546-7.586 9.768-13.057 18.28-13.057s15.733 5.471 18.279 13.057z"/></g><use href="#C" stroke="#0c0c0c" stroke-miterlimit="10" stroke-linejoin="round"/></g><defs><clipPath id="A"><path fill="#fff" transform="translate(16.539 16)" d="M0 0h206.558v208H0z"/></clipPath><path id="B" d="M171.278 227.904l-17.283-30.773-.56-23.719c-.09-3.708-2.14-7.086-5.385-8.877l-2.099-1.158-1.308-1.498c-1.007-1.157-2.38-1.941-3.89-2.217l-2.327-.431-1.523-1.498a10.64 10.64 0 0 0-5.945-2.948l-.812-.118-2.351-21.932c-.244-2.287-2.973-3.322-4.699-1.767l-.101.089c-2.266 2.047-3.557 4.963-3.549 8.012l.118 44.288c.008 3.183-4.264 4.231-5.73 1.401l-7.115-13.787a2.89 2.89 0 0 0-2.98-1.535l-2.019.556a3.96 3.96 0 0 0-2.826 4.618l3.622 17.335h.008c1.251 10.741 6.607 20.584 14.956 27.463l10.315 8.504"/><path id="C" d="M119.742 97.239c13.953 0 25.264-11.311 25.264-25.264s-11.311-25.264-25.264-25.264-25.264 11.311-25.264 25.264 11.311 25.264 25.265 25.264z"/></defs></svg>